<svg width="40" height="40" viewBox="0 0 40 40" fill="none" xmlns="http://www.w3.org/2000/svg">
<g id="Github">
<g id="Ellipse 32" filter="url(#filter0_bii_40_60)">
<circle cx="20" cy="20" r="20" fill="#2D303D" fill-opacity="0.2"/>
</g>
<path id="Vector" fill-rule="evenodd" clip-rule="evenodd" d="M20.2298 9.19531C14.1332 9.19531 9.19531 14.1332 9.19531 20.2298C9.19531 25.1126 12.3539 29.2367 16.7401 30.6988C17.2919 30.7953 17.4988 30.4643 17.4988 30.1746C17.4988 29.9126 17.485 29.0436 17.485 28.1195C14.7126 28.6298 13.9953 27.4436 13.7746 26.8229C13.6505 26.5057 13.1126 25.5263 12.6436 25.2643C12.2574 25.0574 11.7057 24.547 12.6298 24.5332C13.4988 24.5195 14.1195 25.3332 14.3263 25.6643C15.3195 27.3332 16.9057 26.8643 17.5401 26.5746C17.6367 25.8574 17.9263 25.3746 18.2436 25.0988C15.7884 24.8229 13.2229 23.8712 13.2229 19.6505C13.2229 18.4505 13.6505 17.4574 14.3539 16.685C14.2436 16.4091 13.8574 15.2781 14.4643 13.7608C14.4643 13.7608 15.3884 13.4712 17.4988 14.8919C18.3815 14.6436 19.3195 14.5195 20.2574 14.5195C21.1953 14.5195 22.1332 14.6436 23.016 14.8919C25.1263 13.4574 26.0505 13.7608 26.0505 13.7608C26.6574 15.2781 26.2712 16.4091 26.1608 16.685C26.8643 17.4574 27.2919 18.4367 27.2919 19.6505C27.2919 23.885 24.7126 24.8229 22.2574 25.0988C22.6574 25.4436 23.0022 26.1057 23.0022 27.1401C23.0022 28.616 22.9884 29.8022 22.9884 30.1746C22.9884 30.4643 23.1953 30.8091 23.747 30.6988C25.9375 29.9592 27.841 28.5513 29.1895 26.6734C30.538 24.7954 31.2636 22.5418 31.2643 20.2298C31.2643 14.1332 26.3263 9.19531 20.2298 9.19531Z" fill="#454446"/>
</g>
<defs>
<filter id="filter0_bii_40_60" x="-30" y="-30" width="100" height="100" filterUnits="userSpaceOnUse" color-interpolation-filters="sRGB">
<feFlood flood-opacity="0" result="BackgroundImageFix"/>
<feGaussianBlur in="BackgroundImageFix" stdDeviation="15"/>
<feComposite in2="SourceAlpha" operator="in" result="effect1_backgroundBlur_40_60"/>
<feBlend mode="normal" in="SourceGraphic" in2="effect1_backgroundBlur_40_60" result="shape"/>
<feColorMatrix in="SourceAlpha" type="matrix" values="0 0 0 0 0 0 0 0 0 0 0 0 0 0 0 0 0 0 127 0" result="hardAlpha"/>
<feOffset dy="2"/>
<feGaussianBlur stdDeviation="2"/>
<feComposite in2="hardAlpha" operator="arithmetic" k2="-1" k3="1"/>
<feColorMatrix type="matrix" values="0 0 0 0 0.270588 0 0 0 0 0.266667 0 0 0 0 0.27451 0 0 0 0.1 0"/>
<feBlend mode="normal" in2="shape" result="effect2_innerShadow_40_60"/>
<feColorMatrix in="SourceAlpha" type="matrix" values="0 0 0 0 0 0 0 0 0 0 0 0 0 0 0 0 0 0 127 0" result="hardAlpha"/>
<feOffset dy="-5"/>
<feGaussianBlur stdDeviation="6"/>
<feComposite in2="hardAlpha" operator="arithmetic" k2="-1" k3="1"/>
<feColorMatrix type="matrix" values="0 0 0 0 0.270588 0 0 0 0 0.266667 0 0 0 0 0.27451 0 0 0 0.35 0"/>
<feBlend mode="normal" in2="effect2_innerShadow_40_60" result="effect3_innerShadow_40_60"/>
</filter>
</defs>
</svg>
