<svg width="40" height="40" viewBox="0 0 40 40" fill="none" xmlns="http://www.w3.org/2000/svg">
<g id="Instagram">
<g id="Instagram_2">
<g id="Ellipse 24" filter="url(#filter0_bii_40_37)">
<circle cx="20" cy="20" r="20" fill="#2D303D" fill-opacity="0.2"/>
</g>
<path id="Union" fill-rule="evenodd" clip-rule="evenodd" d="M29.4073 11.0484C29.963 11.6038 30.3965 12.2691 30.6802 13.0018C31.0074 13.8709 31.1819 14.7901 31.1962 15.7187C31.2648 16.8915 31.2648 17.2714 31.2648 20.2654C31.2648 23.2593 31.2489 23.6331 31.1962 24.812C31.1778 25.7287 31.005 26.6331 30.6827 27.491C30.3986 28.2235 29.9649 28.8888 29.4093 29.4444C28.8538 30 28.1885 30.4337 27.4559 30.7177C26.5983 31.039 25.6925 31.2126 24.777 31.2312C23.6066 31.2986 23.223 31.2986 20.2303 31.2986C17.2376 31.2986 16.8638 31.2827 15.6837 31.2312C14.7662 31.2011 13.8606 31.0146 13.0059 30.6798C12.2731 30.3961 11.6076 29.9628 11.0518 29.4074C10.4959 28.852 10.0621 28.1868 9.77792 27.4542C9.45561 26.5951 9.28281 25.6907 9.26443 24.774C9.1958 23.6012 9.1958 23.2201 9.1958 20.2274C9.1958 17.2334 9.21173 16.8597 9.26443 15.6807C9.28234 14.7651 9.45598 13.8591 9.77792 13.0018C10.0613 12.2689 10.4947 11.6034 11.0504 11.048C11.6061 10.4925 12.2718 10.0593 13.0047 9.7762C13.861 9.45341 14.7662 9.27933 15.6812 9.26149C16.8516 9.19531 17.2352 9.19531 20.2278 9.19531H20.2279C23.2206 9.19531 23.5943 9.21002 24.7745 9.26149C25.6902 9.28029 26.596 9.45433 27.4535 9.7762C28.1862 10.0596 28.8517 10.4929 29.4073 11.0484ZM28.8064 26.752C29.0508 26.0893 29.1797 25.3896 29.1876 24.6833V24.6846H29.201C29.2537 23.513 29.2537 23.1919 29.2537 20.2069V20.2065C29.2537 17.22 29.2403 16.8927 29.1876 15.7273C29.1762 15.0289 29.0473 14.3375 28.8064 13.6819C28.6223 13.2053 28.3405 12.7724 27.9792 12.4111C27.6179 12.0498 27.185 11.768 26.7084 11.5838C26.0531 11.34 25.3608 11.2111 24.6618 11.2027C23.4767 11.1353 23.1703 11.1353 20.1837 11.1353C17.1972 11.1353 16.87 11.15 15.7045 11.2027C15.006 11.2125 14.3143 11.3414 13.6591 11.5838C12.6922 11.9539 11.9262 12.715 11.5525 13.6819C11.3082 14.3442 11.1792 15.0435 11.1713 15.7493C11.1064 16.9369 11.1064 17.242 11.1064 20.2286C11.1064 23.2139 11.1186 23.5424 11.1713 24.7066C11.1827 25.405 11.3116 26.0964 11.5525 26.752C11.7373 27.2295 12.0203 27.6628 12.3832 28.024C12.7461 28.3852 13.1808 28.6662 13.6591 28.8488C14.3139 29.0925 15.0059 29.2214 15.7045 29.23C16.8908 29.2974 17.1959 29.2974 20.1837 29.2974C23.1691 29.2974 23.4975 29.2839 24.6618 29.23C25.3607 29.221 26.053 29.092 26.7084 28.8488C27.185 28.6651 27.618 28.3836 27.9793 28.0224C28.3406 27.6613 28.6224 27.2286 28.8064 26.752ZM26.1126 15.6658C26.8422 15.6658 27.4337 15.0744 27.4337 14.3447C27.4337 13.6151 26.8422 13.0236 26.1126 13.0236C25.383 13.0236 24.7915 13.6151 24.7915 14.3447C24.7915 15.0744 25.383 15.6658 26.1126 15.6658ZM20.2215 14.5534C18.7185 14.5534 17.2772 15.1504 16.2144 16.2131C15.1517 17.2759 14.5547 18.7172 14.5547 20.2202C14.5547 21.7231 15.1517 23.1644 16.2144 24.2272C17.2772 25.2899 18.7185 25.8869 20.2215 25.8869C21.7244 25.8869 23.1657 25.2899 24.2285 24.2272C25.2912 23.1644 25.8882 21.7231 25.8882 20.2202C25.8882 18.7172 25.2912 17.2759 24.2285 16.2131C23.1657 15.1504 21.7244 14.5534 20.2215 14.5534ZM20.2215 23.9004C19.2451 23.9004 18.3087 23.5125 17.6183 22.8221C16.9279 22.1317 16.54 21.1953 16.54 20.2189C16.54 19.2425 16.9279 18.3062 17.6183 17.6158C18.3087 16.9254 19.2451 16.5375 20.2215 16.5375C21.1978 16.5375 22.1342 16.9254 22.8246 17.6158C23.515 18.3062 23.9029 19.2425 23.9029 20.2189C23.9029 21.1953 23.515 22.1317 22.8246 22.8221C22.1342 23.5125 21.1978 23.9004 20.2215 23.9004Z" fill="#454446"/>
</g>
</g>
<defs>
<filter id="filter0_bii_40_37" x="-30" y="-30" width="100" height="100" filterUnits="userSpaceOnUse" color-interpolation-filters="sRGB">
<feFlood flood-opacity="0" result="BackgroundImageFix"/>
<feGaussianBlur in="BackgroundImageFix" stdDeviation="15"/>
<feComposite in2="SourceAlpha" operator="in" result="effect1_backgroundBlur_40_37"/>
<feBlend mode="normal" in="SourceGraphic" in2="effect1_backgroundBlur_40_37" result="shape"/>
<feColorMatrix in="SourceAlpha" type="matrix" values="0 0 0 0 0 0 0 0 0 0 0 0 0 0 0 0 0 0 127 0" result="hardAlpha"/>
<feOffset dy="2"/>
<feGaussianBlur stdDeviation="2"/>
<feComposite in2="hardAlpha" operator="arithmetic" k2="-1" k3="1"/>
<feColorMatrix type="matrix" values="0 0 0 0 0.270588 0 0 0 0 0.266667 0 0 0 0 0.27451 0 0 0 0.1 0"/>
<feBlend mode="normal" in2="shape" result="effect2_innerShadow_40_37"/>
<feColorMatrix in="SourceAlpha" type="matrix" values="0 0 0 0 0 0 0 0 0 0 0 0 0 0 0 0 0 0 127 0" result="hardAlpha"/>
<feOffset dy="-5"/>
<feGaussianBlur stdDeviation="6"/>
<feComposite in2="hardAlpha" operator="arithmetic" k2="-1" k3="1"/>
<feColorMatrix type="matrix" values="0 0 0 0 0.270588 0 0 0 0 0.266667 0 0 0 0 0.27451 0 0 0 0.35 0"/>
<feBlend mode="normal" in2="effect2_innerShadow_40_37" result="effect3_innerShadow_40_37"/>
</filter>
</defs>
</svg>
