<svg width="40" height="40" viewBox="0 0 40 40" fill="none" xmlns="http://www.w3.org/2000/svg">
<g id="LinkedIn">
<g id="Ellipse 24" filter="url(#filter0_bii_40_52)">
<circle cx="20" cy="20" r="20" fill="#2D303D" fill-opacity="0.2"/>
</g>
<g id="Union">
<path d="M14.5001 11.8477C14.5001 13.3126 13.3126 14.5001 11.8477 14.5001C10.3828 14.5001 9.19531 13.3126 9.19531 11.8477C9.19531 10.3828 10.3828 9.19531 11.8477 9.19531C13.3126 9.19531 14.5001 10.3828 14.5001 11.8477Z" fill="#454446"/>
<path d="M17.0047 31.2255V16.51H21.3907V18.5223H21.4525C22.0622 17.367 23.5533 16.1463 25.7778 16.1463C30.411 16.1463 31.2644 19.1927 31.2644 23.1567V31.2267H26.693V24.0696C26.693 22.3639 26.6639 20.1686 24.3158 20.1686C21.935 20.1686 21.5737 22.0281 21.5737 23.9483V31.2255H17.0047Z" fill="#454446"/>
<path d="M14.1354 16.51H9.55911V31.2255H14.1354V16.51Z" fill="#454446"/>
</g>
</g>
<defs>
<filter id="filter0_bii_40_52" x="-30" y="-30" width="100" height="100" filterUnits="userSpaceOnUse" color-interpolation-filters="sRGB">
<feFlood flood-opacity="0" result="BackgroundImageFix"/>
<feGaussianBlur in="BackgroundImageFix" stdDeviation="15"/>
<feComposite in2="SourceAlpha" operator="in" result="effect1_backgroundBlur_40_52"/>
<feBlend mode="normal" in="SourceGraphic" in2="effect1_backgroundBlur_40_52" result="shape"/>
<feColorMatrix in="SourceAlpha" type="matrix" values="0 0 0 0 0 0 0 0 0 0 0 0 0 0 0 0 0 0 127 0" result="hardAlpha"/>
<feOffset dy="2"/>
<feGaussianBlur stdDeviation="2"/>
<feComposite in2="hardAlpha" operator="arithmetic" k2="-1" k3="1"/>
<feColorMatrix type="matrix" values="0 0 0 0 0.270588 0 0 0 0 0.266667 0 0 0 0 0.27451 0 0 0 0.1 0"/>
<feBlend mode="normal" in2="shape" result="effect2_innerShadow_40_52"/>
<feColorMatrix in="SourceAlpha" type="matrix" values="0 0 0 0 0 0 0 0 0 0 0 0 0 0 0 0 0 0 127 0" result="hardAlpha"/>
<feOffset dy="-5"/>
<feGaussianBlur stdDeviation="6"/>
<feComposite in2="hardAlpha" operator="arithmetic" k2="-1" k3="1"/>
<feColorMatrix type="matrix" values="0 0 0 0 0.270588 0 0 0 0 0.266667 0 0 0 0 0.27451 0 0 0 0.35 0"/>
<feBlend mode="normal" in2="effect2_innerShadow_40_52" result="effect3_innerShadow_40_52"/>
</filter>
</defs>
</svg>
