<svg width="55" height="41" viewBox="0 0 55 41" fill="none" xmlns="http://www.w3.org/2000/svg">
<g id="Nubank">
<path id="Logo-letter-n" d="M0.75 11.8084V32.1301C0.75 33.1196 1.28477 33.424 2.04876 33.424H6.32709C7.24388 33.424 7.62587 33.1196 7.62589 32.1301V3.66432C7.62589 2.9793 8.9915 0.490894 12.821 0.772009C20.0789 1.30479 24.3572 6.33203 24.3572 10.3622V32.1301C24.3572 32.9673 23.9752 33.424 23.0585 33.424H18.8565C17.9397 33.424 17.5577 32.9673 17.5577 32.1301V12.0366C17.5577 9.75945 15.2974 7.31768 12.821 7.31768H5.18066C2.73589 7.31768 0.749995 10.1339 0.75 11.8084Z" stroke="url(#paint0_linear_39_11)" stroke-width="1.5"/>
<path id="Logo-letter-u" d="M53.376 28.8615L53.376 8.53976C53.376 7.5503 52.8412 7.24586 52.0772 7.24586H47.7989C46.8821 7.24586 46.5001 7.5503 46.5001 8.53976V37.0055C46.5001 37.6906 45.1345 40.179 41.305 39.8979C34.0471 39.3651 29.7687 34.3378 29.7687 30.3077L29.7687 8.53976C29.7687 7.70253 30.1508 7.24586 31.0675 7.24586H35.2695C36.1863 7.24586 36.5682 7.70253 36.5682 8.53976V28.6333C36.5682 30.9104 38.8285 33.3522 41.305 33.3522H48.9453C51.3901 33.3522 53.376 30.5359 53.376 28.8615Z" stroke="url(#paint1_linear_39_11)" stroke-width="1.5"/>
</g>
<defs>
<linearGradient id="paint0_linear_39_11" x1="20.6981" y1="5.16096" x2="-0.56298" y2="22.8675" gradientUnits="userSpaceOnUse">
<stop stop-color="#A950C4"/>
<stop offset="1" stop-color="#82269E"/>
</linearGradient>
<linearGradient id="paint1_linear_39_11" x1="33.4279" y1="35.5089" x2="54.689" y2="17.8024" gradientUnits="userSpaceOnUse">
<stop stop-color="#A950C4"/>
<stop offset="1" stop-color="#82269E"/>
</linearGradient>
</defs>
</svg>
