<svg width="40" height="40" viewBox="0 0 40 40" fill="none" xmlns="http://www.w3.org/2000/svg">
<g id="YouTube">
<g id="Ellipse 24" filter="url(#filter0_bii_40_48)">
<circle cx="20" cy="20" r="20" fill="#2D303D" fill-opacity="0.2"/>
</g>
<path id="Vector" d="M20.2298 11.4944C9.38511 11.4944 9.19531 12.4588 9.19531 19.9909C9.19531 27.5231 9.38511 28.4875 20.2298 28.4875C31.0745 28.4875 31.2643 27.5231 31.2643 19.9909C31.2643 12.4588 31.0745 11.4944 20.2298 11.4944ZM23.7663 20.3595L18.8119 22.6723C18.3782 22.8731 18.0229 22.648 18.0229 22.1691V17.8127C18.0229 17.3349 18.3782 17.1087 18.8119 17.3096L23.7663 19.6224C24.2 19.8254 24.2 20.1565 23.7663 20.3595Z" fill="#454446"/>
</g>
<defs>
<filter id="filter0_bii_40_48" x="-30" y="-30" width="100" height="100" filterUnits="userSpaceOnUse" color-interpolation-filters="sRGB">
<feFlood flood-opacity="0" result="BackgroundImageFix"/>
<feGaussianBlur in="BackgroundImageFix" stdDeviation="15"/>
<feComposite in2="SourceAlpha" operator="in" result="effect1_backgroundBlur_40_48"/>
<feBlend mode="normal" in="SourceGraphic" in2="effect1_backgroundBlur_40_48" result="shape"/>
<feColorMatrix in="SourceAlpha" type="matrix" values="0 0 0 0 0 0 0 0 0 0 0 0 0 0 0 0 0 0 127 0" result="hardAlpha"/>
<feOffset dy="2"/>
<feGaussianBlur stdDeviation="2"/>
<feComposite in2="hardAlpha" operator="arithmetic" k2="-1" k3="1"/>
<feColorMatrix type="matrix" values="0 0 0 0 0.270588 0 0 0 0 0.266667 0 0 0 0 0.27451 0 0 0 0.1 0"/>
<feBlend mode="normal" in2="shape" result="effect2_innerShadow_40_48"/>
<feColorMatrix in="SourceAlpha" type="matrix" values="0 0 0 0 0 0 0 0 0 0 0 0 0 0 0 0 0 0 127 0" result="hardAlpha"/>
<feOffset dy="-5"/>
<feGaussianBlur stdDeviation="6"/>
<feComposite in2="hardAlpha" operator="arithmetic" k2="-1" k3="1"/>
<feColorMatrix type="matrix" values="0 0 0 0 0.270588 0 0 0 0 0.266667 0 0 0 0 0.27451 0 0 0 0.35 0"/>
<feBlend mode="normal" in2="effect2_innerShadow_40_48" result="effect3_innerShadow_40_48"/>
</filter>
</defs>
</svg>
